/* XPM */
static char *_3e18b737e174264d1b24bcede5fd235pwvklw2x16CbuhKd[] = {
/* columns rows colors chars-per-pixel */
"32 32 146 2 ",
"  c #C8D45D",
".  c #060F28",
"X  c #050D26",
"o  c #0B1027",
"O  c #0D132B",
"+  c #12162C",
"@  c #1B192E",
"#  c #161D37",
"$  c #1C1E35",
"%  c #1A1F38",
"&  c #261E32",
"*  c #2A1F32",
"=  c #1C2139",
"-  c #202134",
";  c #2A2031",
":  c #322636",
">  c #392736",
",  c #362838",
"<  c #3C2B39",
"1  c #4A2E3D",
"2  c #5A333F",
"3  c #1A364C",
"4  c #242842",
"5  c #292941",
"6  c #2A2F4A",
"7  c #2A314F",
"8  c #3D3543",
"9  c #2E3351",
"0  c #303552",
"q  c #333855",
"w  c #353C5C",
"e  c #3A3F5D",
"r  c #453C46",
"t  c #493E47",
"y  c #463F4E",
"u  c #483B4A",
"i  c #493644",
"p  c #5C3743",
"a  c #493F50",
"s  c #633947",
"d  c #6E3D47",
"f  c #3B405F",
"g  c #3B4060",
"h  c #4C424B",
"j  c #5F474E",
"k  c #434455",
"l  c #444758",
"z  c #4F4759",
"x  c #5A4C59",
"c  c #544854",
"v  c #6F4146",
"b  c #7A424C",
"n  c #7C494D",
"m  c #75474B",
"M  c #684E52",
"N  c #774856",
"B  c #64505D",
"V  c #745B5B",
"C  c #474863",
"Z  c #434561",
"A  c #4E5068",
"S  c #5C5569",
"D  c #5F5A6C",
"F  c #685862",
"G  c #645C6E",
"H  c #685D6D",
"J  c #775B66",
"K  c #6B6170",
"L  c #84454F",
"P  c #874851",
"I  c #8D4852",
"U  c #8A5659",
"Y  c #985755",
"T  c #995856",
"R  c #9D5E5E",
"E  c #9C625E",
"W  c #845F65",
"Q  c #9B5860",
"!  c #876D6D",
"~  c #99796F",
"^  c #846971",
"/  c #9E7C72",
"(  c #927B7D",
")  c #AC6C65",
"_  c #A66968",
"`  c #B36D65",
"'  c #AE726C",
"]  c #B6716C",
"[  c #A06871",
"{  c #A4717A",
"}  c #A27E72",
"|  c #B77676",
" . c #BD7D74",
".. c #C67A6E",
"X. c #CE7E6F",
"o. c #A58074",
"O. c #A6857E",
"+. c #AD867C",
"@. c #BA8879",
"#. c #B48476",
"$. c #D28172",
"%. c #D18877",
"&. c #D08878",
"*. c #477B8F",
"=. c #5E7085",
"-. c #60778E",
";. c #8C7281",
":. c #3B8094",
">. c #6DA2B5",
",. c #74B8C9",
"<. c #AE8C86",
"1. c #9B96A1",
"2. c #B9B1B4",
"3. c #C58682",
"4. c #CB9581",
"5. c #C49B87",
"6. c #C99B87",
"7. c #C99E89",
"8. c #C49D88",
"9. c #D99683",
"0. c #E19983",
"q. c #CFA08C",
"w. c #D2A08A",
"e. c #C6A497",
"r. c #CFA290",
"t. c #D1A492",
"y. c #D3AA96",
"u. c #DBA993",
"i. c #E6A98F",
"p. c #EEAD93",
"a. c #F1AE92",
"s. c #EFB297",
"d. c #E1B198",
"f. c #FDBC9C",
"g. c #F5B799",
"h. c #C5A5AB",
"j. c #C7B7B9",
"k. c #E9B5A1",
"l. c #FCC4A2",
"z. c #FFC9A5",
"x. c #ADB4C0",
"c. c #CFBEC7",
"v. c #CEBFC8",
"b. c #BFD8E3",
"n. c #D8C6CB",
"m. c #E6E9F1",
/* pixels */
"                    + + + + + + + + + + + +                     ",
"                    = = = = = = = = = = = =                     ",
"                + % 6 0 0 0 0 0 0 9 0 0 9 6 % +                 ",
"                % 4 q f f e f f g e g g e q 5 %                 ",
"            + = 6 q e e e e e e f e e e e w q 6 = +             ",
"            + = 0 f e w e f e e e f e e w e g 0 = +             ",
"            + = 0 f w w w f e e e f f e w w e 0 = +             ",
"            + = 9 C D D Z w w w w w w Z D D C 0 = +             ",
"            + % 9 G <.<.D w w w w q w D <.<.G 7 % +             ",
"            O % 7 K y.u.( H G H H G G ( d.u.K 7 % O             ",
"            o # 7 K y.l.d.t.t.r.r.t.t.d.l.r.H 7 # O             ",
"            t h e S O.7.q.u.g.l.l.g.u.q.7.O.S e y t             ",
"        O t o.O.S e z x x ! u.z.z.u.! x x z e S O.o.t O         ",
"        O h 7.y.K e z a 5 c 7.z.z.7.c 5 a z e K y.7.h O         ",
"        O h 7.y.H S O./ 8 u 5.z.z.5.h 8 / O.S G y.q.h O         ",
"        O t o.+.J ! u.5.t 8 #.a.a.#.8 t 5.y.! J +.o.t O         ",
"            r j U  .s.5.u > R X.$.E , t 8.s. .U j t             ",
"            . ; v ` 0.4.V M ' X.$.) M V 4.0.` v ; .             ",
"            . + ; p ) %.4.r.i.a.a.i.r.4.&.) p * + o             ",
"            h l l x U ` 9.p.a.a.a.p.p.9.` U x l k t             ",
"        X i } e.2.1.J n R ] X.X.$...] R b J 1.2.e.o.8 X         ",
"        r V &.k.j.1.B p d Q | 3.3.| R b 2 B 1.j.k.&.V r         ",
"    O t } 4.%.' F k i p L [ h.n.n.h.[ b p i y F ' &.4./ t O     ",
"    O h 7.l.%.E < @ 1 d I ;.v.m.m.v.{ L d 1 @ < E 9.f.5.h O     ",
"    O h 5.z.f.@.i & s P I { v.m.m.n.{ I L s & r @.f.l.5.h O     ",
"    o t / 6.7.~ 8 & p v N ;.x.b.b.x.;.N N p & 8 ~ q.5.o.r o     ",
"        t h h 8 - $ & 8 A -.>.,.,.>.-.A 8 & + - 8 h h h         ",
"        o O O O + $ ; u D =.*.:.:.*.=.D u ; $ + + O o o         ",
"                + : m E _ ^ k 3 3 f W _ E m : +                 ",
"                O < n T Y n > o . > n Y T n < O                 ",
"                    , 1 > >         > < < <                     ",
"                    O O O +         O + + +                     "
};
