/* XPM */
static char *_bd580553409466dd01afe8dd5ac8828UYa5G14qAnAqrnGJ[] = {
/* columns rows colors chars-per-pixel */
"96 16 7 1 ",
"  c None",
". c #14182E",
"X c #E64539",
"o c #AD2F45",
"O c #F0B541",
"+ c #FFEE83",
"@ c #F5FFE8",
/* pixels */
"                                                                                                ",
"                                                   ..      ..     ..        ..    ..        ..  ",
"                                                  .+........+.   .+..........+.  .+..........+. ",
"  ..        ..    ..        ..     ..      ..     .+.oooooo.+.   .+...@..@...+.  .+...@..@...+. ",
" .+..........+.  .+..........+.   .+........+.    .@.XXXXXX.@.   .+++O+..+O+++.  .+++O+..+O+++. ",
" .+.oooooooo.+.  .+.oooooooo.+.   .+.oooooo.+.    .+.o....o.+.   ......++......  ......++...... ",
" .@.XXXXXXXX.@.  .+.oooooooo.+.   .@.XXXXXX.@.    .+..@@@@..+.   ..............  .............. ",
" .+.oooooooo.+.  .@.XXXXXXXX.@.   .+.oooooo.+.    .++O+..+O++.   .O..........O.  .O..........O. ",
" .+.oo....oo.+.  .+.oooooooo.+.   .+.o....o.+.    ....+..+....   .O..........O.  .O..........O. ",
" .+...@@@@...+.  .+.oo....oo.+.   .+..@@@@..+.     ....++....    .O..........O.  .O..........O. ",
" .+++O+..+O+++.  .+...@@@@...+.   .++O+..+O++.     .O......O.    .O..........O.  .O..........O. ",
" .....+..+.....  .+++O+..+O+++.   ....+..+....     .+.oooo.+.    .+.oooooooo.+.  .+.oooooooo.+. ",
" .O.oo.++.oo.O.  .....+..+.....   .O.o.++.o.O.     .+.oooo.+.    .+.oooooooo.+.  .+.oooooooo.+. ",
" .+..........+.  .O....++....O.   .+........+.     .+......+.    .+..........+.  .+..........+. ",
" .++++++++++++.  .+++++..+++++.   .++++++++++.     .++++++++.    .++++++++++++.  .++++++++++++. ",
" .O..........O.  .O..........O.   .O........O.     .O......O.    .O..........O.  .O..........O. "
};
