/* XPM */
static char *fcec4eae80214ea0b4a4579932254d1bVua4Q2wXBmuLlwb2[] = {
/* columns rows colors chars-per-pixel */
"32 32 206 2 ",
"  c #C8D45D",
".  c #020725",
"X  c #020726",
"o  c #070D29",
"O  c #070D2A",
"+  c #070E2B",
"@  c #080E2A",
"#  c #080E2B",
"$  c #090F2B",
"%  c #0A0F2B",
"&  c #120F2B",
"*  c #0D1129",
"=  c #0C112B",
"-  c #0D112B",
";  c #0D122C",
":  c #0D132D",
">  c #0E132C",
",  c #0F132C",
"<  c #0D152C",
"1  c #0F142C",
"2  c #0F172D",
"3  c #0F142E",
"4  c #12162D",
"5  c #12172D",
"6  c #13172E",
"7  c #17142D",
"8  c #14182E",
"9  c #191A2C",
"0  c #181C30",
"q  c #27142F",
"w  c #30172F",
"e  c #31172F",
"r  c #33182F",
"t  c #3E1C2D",
"y  c #2A1730",
"u  c #2C1931",
"i  c #311630",
"p  c #321630",
"a  c #371A30",
"s  c #341932",
"d  c #381D33",
"f  c #391E34",
"g  c #20202E",
"h  c #372F2E",
"j  c #372F2F",
"k  c #39312F",
"l  c #202332",
"z  c #202333",
"x  c #222533",
"c  c #3D3531",
"v  c #36373A",
"b  c #393B3D",
"n  c #3A3C3D",
"m  c #3C3C3C",
"M  c #3D3E3D",
"N  c #3E3E3D",
"B  c #511D35",
"V  c #651F39",
"C  c #473B30",
"Z  c #453F33",
"A  c #4B3F32",
"S  c #68223A",
"D  c #494035",
"F  c #4B4237",
"G  c #4C4337",
"H  c #40403E",
"J  c #41413E",
"K  c #48473F",
"L  c #49483D",
"P  c #4B483F",
"I  c #4D493E",
"U  c #4C493F",
"Y  c #763146",
"T  c #494841",
"R  c #4A4940",
"E  c #4A4A42",
"W  c #4B4B42",
"Q  c #4B4B43",
"!  c #4C4B42",
"~  c #4B4C42",
"^  c #4B4C43",
"/  c #4C4C43",
"(  c #4D4C43",
")  c #4E4C43",
"_  c #4F4D43",
"`  c #4D4E43",
"'  c #4F4E43",
"]  c #4E4D44",
"[  c #4F4E44",
"{  c #4E4F44",
"}  c #4C4F4A",
"|  c #4E4F4A",
" . c #504E44",
".. c #504F44",
"X. c #515044",
"o. c #474D5B",
"O. c #554454",
"+. c #564655",
"@. c #4D5157",
"#. c #46515D",
"$. c #4A5158",
"%. c #48525D",
"&. c #4A535D",
"*. c #69654D",
"=. c #6A664D",
"-. c #6D694E",
";. c #6F6A4F",
":. c #7A6C47",
">. c #7C6E47",
",. c #7C6E48",
"<. c #756F59",
"1. c #7F7955",
"2. c #7A7C6F",
"3. c #82253D",
"4. c #83253D",
"5. c #83263D",
"6. c #85263F",
"7. c #87263F",
"8. c #88263E",
"9. c #88263F",
"0. c #86293F",
"q. c #88293F",
"w. c #8E283F",
"e. c #902B3B",
"r. c #A73336",
"t. c #917036",
"y. c #927137",
"u. c #DA403C",
"i. c #DB403C",
"p. c #DC413C",
"a. c #DE413C",
"s. c #892A40",
"d. c #922A40",
"f. c #A42D44",
"g. c #AE2F46",
"h. c #B02F46",
"j. c #B12F46",
"k. c #B22F46",
"l. c #B23046",
"z. c #B33046",
"x. c #B53047",
"c. c #BC3542",
"v. c #BE3542",
"b. c #BF3542",
"n. c #C03542",
"m. c #BD903B",
"M. c #BE903B",
"N. c #978F5E",
"B. c #99925F",
"V. c #9C945F",
"C. c #BF9B47",
"Z. c #BF9B49",
"A. c #A59C62",
"S. c #ABA265",
"D. c #ADA365",
"F. c #C19B48",
"G. c #C39E4A",
"H. c #D1AB4F",
"J. c #D4AC4E",
"K. c #D6AE50",
"L. c #D0AC54",
"P. c #C2AF62",
"I. c #C5B163",
"U. c #C6B362",
"Y. c #C8B363",
"T. c #C9BD6E",
"R. c #C8BC6F",
"E. c #CABF6E",
"W. c #CABF6F",
"Q. c #C9BD70",
"!. c #C9BE70",
"~. c #CABE70",
"^. c #CBBF70",
"/. c #CABF71",
"(. c #CCBF70",
"). c #CCBF71",
"_. c #CDC070",
"`. c #CCC071",
"'. c #CDC071",
"]. c #CDC171",
"[. c #CDC271",
"{. c #CCC172",
"}. c #D0C372",
"|. c #D1C472",
" X c #D9C972",
".X c #DCCB73",
"XX c #DECD72",
"oX c #DDCF77",
"OX c #F5DD74",
"+X c #F8DF73",
"@X c #F8E075",
"#X c #9B9D9C",
"$X c #C7C083",
"%X c #C7C284",
"&X c #D6D191",
"*X c #F4E187",
"=X c #FCEC82",
"-X c #C3C7AC",
";X c #C3C9AE",
":X c #D3D3AD",
">X c #C2CBBF",
",X c #C2CDBF",
"<X c #C1CDC1",
"1X c #C2CEC1",
"2X c #D4DCC7",
"3X c #F3F8D3",
/* pixels */
"                                                                ",
"                                                                ",
"                                                                ",
"                                                                ",
"                                                                ",
"                                                                ",
"        = , 4 8                                 8 4 2 %         ",
"        T N x 4                                 4 x J T         ",
"    = T A.V.J 2 2 2 2 2 2 2 2 2 2 2 2 2 2 2 2 1 1 J V.A.T =     ",
"    = ..[.[.' 7 y f f d d d d d d d d d f f f y 7 X.|.!...,     ",
"    = ..`.`.{ y S q.0.0.0.0.0.0.0.0.0.0.0.0.s.S y { [.!...=     ",
"    = ..T.`.' s 8.l.l.l.h.h.h.h.h.h.h.h.l.l.x.8.a ^ [.T...=     ",
"    4 ) T.T.' a 6.l.h.h.h.g.h.g.h.h.g.g.h.h.l.6.a ' E.E.) =     ",
"    = | $X$X| r e.n.c.c.c.c.c.c.c.c.c.c.c.c.c.e.r | $X$X| =     ",
"    = @.-X;X$.t r.a.a.i.u.i.u.i.u.i.u.u.i.i.a.r.t $.;X-X@.=     ",
"    = @.-X-X$.t r.a.i.i.i.i.i.i.i.i.i.i.i.a.a.r.t $.;X-X@.=     ",
"    = | $X%X| a e.n.v.v.c.n.n.c.c.c.c.n.c.n.n.w.r | %X%X^ =     ",
"    = ) T.[.` s s.k.k.f.w.4.4.6.0.3.3.w.f.k.k.s.s ' `.T.` ,     ",
"    = ' T.T.` s s.k.x.e.B e e e r r r B d.x.k.6.s ' `.T.' =     ",
"    , ` !.!.T q V s.8.Y O.#.&.&.&.#.#.+.Y 8.8.V q ~ T.T.' ,     ",
"    = ..Q.).) & q i i O.#X1X1X,X,X1X1X#XO.w e q & ) !.Q.' =     ",
"    = ..!.oX1.T T K Z <.:X3X2X>X,X2X3X:X<.Z K ' T 1.oX!.' %     ",
"    =  .!.=XoX!.!.Y.C.L.*X&X2.o.o.2.&X*XL.C.I.!.!.oX=X!. .%     ",
"    4 m N.!.[.).).I.F.J.+XT.K X . K T.+XJ.F.I.[.).[.T.N.N 4     ",
"    6 z n T ` ` ` I A ,.XX).T X X T ).XX:.A I ` ....T b z 2     ",
"    6 g c h 9 = % % O b B.S.;.) ) ;.S.B.b O % % % 9 h c y 2     ",
"    1 c y.t.j + % % % 0 v =.S.|.|.S.=.v 0 % % % O j t.y.c 2     ",
"    , F G.K.,.Q ......Q T =.S.|.|.S.=.T ` ` ..' Q ,.K.G.G 1     ",
"    = ) I.+XXX!.).E.).).[.S.;.T ) -.S.).).).).).[..XOXI.T ,     ",
"    = T P.OX XQ.R.Q.Q.).[.V.n O % m V.[.).R.T.Q.R. XOXP.U 1     ",
"    = F F.L.:.Q Q ..` | ..Z z 1 , z Z | ....` ^ T :.L.C.F ,     ",
"    , A m.m.C + % , % = : : 4 6 4 4 , = = = , O O A m.m.A 1     "
};
