/* XPM */
static char *_dc5914af4a347fef17349eee8077dbcz4sJMhyGqEyjcIa9[] = {
/* columns rows colors chars-per-pixel */
"32 32 157 2 ",
"  c #C8D45D",
".  c #4F3F33",
"X  c #5B432F",
"o  c #554636",
"O  c #594539",
"+  c #574838",
"@  c #5C4A3B",
"#  c #425637",
"$  c #465639",
"%  c #4D553C",
"&  c #475939",
"*  c #485A39",
"=  c #56523D",
"-  c #555E3E",
";  c #585E3F",
":  c #62473E",
">  c #604B3D",
",  c #6A4F3F",
"<  c #64513D",
"1  c #6A523E",
"2  c #59603F",
"3  c #5D5241",
"4  c #664641",
"5  c #664A40",
"6  c #6D4A44",
"7  c #704D46",
"8  c #734D49",
"9  c #794C4C",
"0  c #645343",
"q  c #6C5442",
"w  c #665844",
"e  c #6C5A44",
"r  c #6D5D4A",
"t  c #725543",
"y  c #715F46",
"u  c #7D5F46",
"i  c #735148",
"p  c #7E554D",
"a  c #755D4B",
"s  c #6F5B54",
"d  c #725E57",
"f  c #5E6241",
"g  c #646443",
"h  c #656846",
"j  c #6D664A",
"k  c #6E6A48",
"l  c #7E6446",
"z  c #76604A",
"x  c #7D634A",
"c  c #766C4A",
"v  c #7B6D4B",
"b  c #766256",
"n  c #7A655F",
"m  c #7E6963",
"M  c #825A4E",
"N  c #8A5E55",
"B  c #886248",
"V  c #816A4D",
"C  c #916749",
"Z  c #976B4D",
"A  c #82714E",
"S  c #826255",
"D  c #8B6256",
"F  c #816C51",
"G  c #8B6B51",
"H  c #8C635A",
"J  c #8D6A59",
"K  c #956E5D",
"L  c #8A7552",
"P  c #8D7852",
"I  c #867559",
"U  c #937654",
"Y  c #9C7253",
"T  c #957955",
"R  c #987A55",
"E  c #977A5C",
"W  c #9E7E5A",
"Q  c #A17654",
"!  c #AB7754",
"~  c #AD7A57",
"^  c #A37D5C",
"/  c #AB7B58",
"(  c #B17F5A",
")  c #806A65",
"_  c #8E7E61",
"`  c #977362",
"'  c #9D825C",
"]  c #A1805E",
"[  c #A9825D",
"{  c #B3825D",
"}  c #9D8666",
"|  c #9B8A6A",
" . c #A28462",
".. c #AC8563",
"X. c #A58A63",
"o. c #AB8964",
"O. c #AB8669",
"+. c #A28D6A",
"@. c #AB8D6B",
"#. c #B28761",
"$. c #B38C65",
"%. c #B98E67",
"&. c #B58F68",
"*. c #A3916E",
"=. c #AE956A",
"-. c #B39067",
";. c #B3926B",
":. c #BB946B",
">. c #AB8F71",
",. c #A59471",
"<. c #AB9374",
"1. c #AE9A75",
"2. c #AF9978",
"3. c #B29771",
"4. c #B39C75",
"5. c #BB9A71",
"6. c #B29D79",
"7. c #B3A077",
"8. c #BDA473",
"9. c #B4A17A",
"0. c #BBA57C",
"q. c #B8A87F",
"w. c #C09468",
"e. c #C19B6F",
"r. c #C39D71",
"t. c #C5A473",
"y. c #CAA576",
"u. c #C7AA77",
"i. c #C1A67A",
"p. c #CEB27C",
"a. c #D1B77D",
"s. c #BCAB83",
"d. c #C7B385",
"f. c #CAB687",
"g. c #D3B983",
"h. c #DEBC82",
"j. c #D3BD89",
"k. c #E3C387",
"l. c #E0C084",
"z. c #E0C68B",
"x. c #E5C588",
"c. c #E7C789",
"v. c #E4C889",
"b. c #E6CA8A",
"n. c #E2C88C",
"m. c #E5CA8D",
"M. c #E5CB8D",
"N. c #E5CA8C",
"B. c #EACE8E",
"V. c #ECCF8D",
"C. c #EDD08E",
"Z. c #ECD08F",
"A. c #EED18F",
"S. c #EFD28F",
"D. c #F0D28F",
"F. c #F0D290",
"G. c #F1D390",
/* pixels */
"                                                                ",
"                                                                ",
"                                                                ",
"                                                                ",
"                                                m m m m         ",
"                                                b s m m         ",
"                            o r *.f.n.Z.C.Z.G.8.e 3 d )         ",
"                            + e _ 7.g.m.B.Z.G.p.L q r s         ",
"                        + + + @ w I 4.j.m.G.C.b.a.X.e .         ",
"                        > O @ @ o w _ 4.p.h.l.x.b.t.l X         ",
"            s.d.z.G.G.8.y o 6 6 @ @ 0 V [ w.r.y.y.:.Q C         ",
"            | 4.g.M.Z.a.' z 8 7 5 @ + , Z / ^ ] ] ^ / (         ",
"        + @ e I 1.j.m.c.g.;.a : 6 6 O 1 Y Y M q q u Q ~         ",
"        + + + e } i.g.k.x.u.L q 7 7 6 u Q Y t o o , Y (         ",
"        + o + q R $.r.t.y.5.o.U q q B Q #.^ M 4 O q W $.( !     ",
"        > @ o 1 Y { %.%.:.:.:.o.V x Q $.:.@.` S a F @.:.#.#.    ",
"    O > 6 6 @ q W :.%.:.;.:.:.&...o.3.9.9.6.6.<.*.,.6.9.6.5.    ",
"    @ @ 8 9 : a  .5.5.5.5.5.5.&...X.4.0.0.0.0.0.0.0.0.0.0.0.    ",
"R v ; = i 9 8 S @.s.0.0.0.0.9.*.v F o.5.5.5.5.5.5.r.5.5.5.5.    ",
"R A 2 % 0 8 9 H <.9.6.6.<.2.s.*.r q  .5.5.:.&.....O.;.5.5.;.    ",
"R A 2 & % 3 8 H <.9.@.E J ` 6.,.r r +.0.0.4.X.R D K <.0.0.*.z o ",
"A v g - & % 0 S >.4.' G p N >.+.r e +.0.0.3.' G p N =.q.0.*.x < ",
"; g v c - # % k X.;.' G p N O. .e e  .5.5.;.' G p N o.5.5.@.U V ",
"# - c v g - & f } $.' G M D ..] t e ^ :.:.-.' G p N ..;.[ ' E U ",
"    - g v v                                             h k L T ",
"    # 2 A R                                             f g V T ",
"            T ] $.:.:.:.        T ' $.$.' U U U     :.o.P A     ",
"            U W $.:.:.:.        U W $.$.' U U U     :.&.' T     ",
"                                                                ",
"                                                                ",
"                                                                ",
"                                                                "
};
