/* XPM */
static char *_30aa1c678fb477dd437cb3f6c4686delRyftdJiPtnGdQtg[] = {
/* columns rows colors chars-per-pixel */
"32 32 138 2 ",
"   c #110A1E",
".  c #110B1E",
"X  c #130D20",
"o  c #150D20",
"O  c #160F21",
"+  c #180C23",
"@  c #190D25",
"#  c #161022",
"$  c #181526",
"%  c #17172A",
"&  c #1A1728",
"*  c #1C172A",
"=  c #1F172D",
"-  c #1B1829",
";  c #1D182A",
":  c #1B182D",
">  c #1B1B2D",
",  c #1D1D2D",
"<  c #1F1D32",
"1  c #1F1E33",
"2  c #201B31",
"3  c #201E33",
"4  c #202034",
"5  c #222235",
"6  c #232236",
"7  c #242337",
"8  c #262439",
"9  c #27253A",
"0  c #27273A",
"q  c #27273B",
"w  c #2D233C",
"e  c #29293D",
"r  c #2C2A3D",
"t  c #2D2D3C",
"y  c #333339",
"u  c #272740",
"i  c #2F2F46",
"p  c #312F41",
"a  c #2C304D",
"s  c #333143",
"d  c #30364A",
"f  c #353549",
"g  c #33334D",
"h  c #35354C",
"j  c #2F3350",
"k  c #313656",
"l  c #323757",
"z  c #323858",
"x  c #353B5B",
"c  c #333466",
"v  c #373F62",
"b  c #314954",
"n  c #384063",
"m  c #3E4363",
"M  c #3C456C",
"N  c #3E476D",
"B  c #3F4870",
"V  c #3F4971",
"C  c #434755",
"Z  c #424767",
"A  c #474A67",
"S  c #494C6A",
"D  c #494B6E",
"F  c #4A4E6E",
"G  c #555566",
"H  c #404971",
"J  c #404972",
"K  c #404A72",
"L  c #424B74",
"P  c #434C74",
"I  c #424C75",
"U  c #444D76",
"Y  c #444E77",
"T  c #4B4F70",
"R  c #4D5171",
"E  c #4E5272",
"W  c #4E5273",
"Q  c #4C567D",
"!  c #4C567E",
"~  c #4D577F",
"^  c #486069",
"/  c #5D617D",
"(  c #22B14C",
")  c #4F5880",
"_  c #4F5882",
"`  c #505981",
"'  c #515A82",
"]  c #515B84",
"[  c #525C85",
"{  c #5F688F",
"}  c #61698F",
"|  c #686E8D",
" . c #6F7289",
".. c #74768C",
"X. c #76778D",
"o. c #616990",
"O. c #616992",
"+. c #636B93",
"@. c #666E97",
"#. c #676F97",
"$. c #676F98",
"%. c #6B7296",
"&. c #687098",
"*. c #6A7199",
"=. c #6A729B",
"-. c #6B739C",
";. c #70789D",
":. c #6970A9",
">. c #6B71AB",
",. c #767EA1",
"<. c #747CA2",
"1. c #7980A3",
"2. c #7981A3",
"3. c #7C83A6",
"4. c #888EAE",
"5. c #898FAF",
"6. c #888FB0",
"7. c #8E94B3",
"8. c #8E94B4",
"9. c #9096B4",
"0. c #9197B4",
"q. c #9299B8",
"w. c #999EBA",
"e. c #9AA0BB",
"r. c #9BA1BE",
"t. c #9CA2BC",
"y. c #9DA2BD",
"u. c #9FA4BE",
"i. c #A0A5BF",
"p. c #A1A6BF",
"a. c #A2A7C0",
"s. c #A3A8C1",
"d. c #A5A9C2",
"f. c #A4A9C3",
"g. c #A5AAC2",
"h. c #A6ABC3",
"j. c #A6ACC5",
"k. c #A7ACC5",
/* pixels */
"( ( ( ( ( ( ( ( ( + . . . . . . . . . . .   @ ( ( ( ( ( ( ( ( ( ",
"( ( ( ( ( ( ( ( 5 t t p s p p p p p p p p e t 3 ( ( ( ( ( ( ( ( ",
"( ( ( ( ( ( ( - a F /  .X.X.X.X.....X.X.../ D d * ( ( ( ( ( ( ( ",
"( ( ( ( ( ( > i A $.7.y.h.s.a.a.p.d.d.h.y.6.%.S p < ( ( ( ( ( ( ",
"( ( ( ( ( * f ^ | 5.t.s.j.j.j.j.d.j.j.j.j.w.6.| ^ f ; ( ( ( ( ( ",
"( ( ( ( = y A >.6.y.s.p.h.s.s.s.a.d.a.h.a.j.w.6.>.A y = ( ( ( ( ",
"( ( ( , g G | 5.t.p.h.s.p.p.s.s.d.d.a.a.f.f.a.w.6.| G g > ( ( ( ",
"( ( - i S >.5.y.s.p.s.s.s.s.s.s.a.a.a.a.a.a.a.d.y.6.>.D p & ( ( ",
"( 5 h A | 6.t.p.h.s.s.s.s.s.s.s.a.a.a.a.a.a.p.j.j.w.4.| A f 5 ( ",
"+ w D >.6.t.p.p.s.s.s.s.s.s.s.s.a.h.a.h.a.a.d.a.a.a.y.5.>.D w + ",
"o 9 R <.q.h.h.s.s.p.s.s.s.s.s.s.j.a.a.a.h.a.p.a.a.s.j.q.<.W 9 o ",
"o 9 F ;.8.p.s.s.s.s.s.s.s.s.s.s.a.a.a.h.a.a.h.a.a.h.p.8.;.F 9 o ",
"o 9 Z o.3.8.t.s.s.s.s.p.s.s.s.s.d.j.a.a.p.p.h.a.h.y.8.3.o.Z 7 o ",
"# 4 x Q } 1.7.p.s.s.p.s.s.s.s.s.a.a.d.a.h.p.a.h.p.8.,.o.Q x 4 # ",
"# 1 k P _ { 2.7.t.s.s.s.s.p.s.s.j.a.a.a.a.a.s.y.9.2.{ _ P k 1 # ",
"# 1 k V P ~ o.1.8.a.h.s.p.s.s.s.a.a.a.a.h.j.t.7.,.{ Q Y V z 1 # ",
"o 1 k K V L _ { 3.9.t.s.s.s.s.i.a.a.d.a.a.p.7.2.} Q L K K z 3 o ",
"# 3 z K P V L Q } ,.9.t.s.h.s.s.a.j.j.j.y.7.,.o.~ P K K K k 3 o ",
"# 3 z K L V B L Q { 2.0.t.t.t.w.w.w.w.w.9.2.} ~ L N K L L z 3 # ",
"# 1 z V L V V V P Q { 1.3.3.3.3.3.3.3.3.,.} ~ L V K K L V z 3 # ",
"# 1 z K L V L L V K ' +.*.*.@.*.%.$.&.*.} ' L H K V V L K z 1 # ",
"# 3 z L L V V V V K ' o.$.$.*.o.@.@.@.&.o._ V H K V L P P z 3 # ",
"o 1 k N V L V L L V ' o.$.$.$.*.$.*.&.*.+._ P N K K V V N j 1 # ",
"( 1 e a v L L V Z L ' +.*.*.$.$.$.$.&.*.+._ P H K L L n a e 1 ( ",
"( ( $ 1 j N V V V L _ +.*.*.*.$.*.$.$.$.o.' K K K K N j 1 $ ( ( ",
"( ( ( ; u C n K V L _ +.*.$.$.$.$.$.*.*.@.' K K K v C u = ( ( ( ",
"( ( ( ( & 1 j N L L ' O.*.$.*.$.*.@.*.*.o.' K K N j 1 & ( ( ( ( ",
"( ( ( ( ( % u c v V ' $.-.*.-.*.*.*.*.-.$.' K v c u % ( ( ( ( ( ",
"( ( ( ( ( ( > 1 a Z ' O.*.#.@.%.*.&.&.&.o.[ V a 1 : ( ( ( ( ( ( ",
"( ( ( ( ( ( ( o t b m T R R R R R R W R F m b e $ ( ( ( ( ( ( ( ",
"( ( ( ( ( ( ( ( 1 3 5 9 9 9 e 9 9 9 9 9 9 5 1 1 ( ( ( ( ( ( ( ( ",
"( ( ( ( ( ( ( ( ( $ . # # . . # + . # . . + @ ( ( ( ( ( ( ( ( ( "
};
